<svg width="48" height="48" viewBox="0 0 48 48" fill="none" xmlns="http://www.w3.org/2000/svg">
<path d="M12.5408 8.50252C12.5408 8.10105 12.5547 7.79648 12.5408 7.49191C12.4578 6.12136 13.5514 4.97231 15.0604 5C17.6908 5.04153 20.3211 5.01385 22.9376 5.01385C26.2463 5.01385 29.555 5.01385 32.8638 5.01385C34.082 5.01385 34.9542 5.63682 35.2449 6.71665C35.3003 6.93816 35.3141 7.15966 35.328 7.39501C35.3418 7.72726 35.328 8.04567 35.328 8.50252C35.8817 8.50252 36.394 8.54406 36.9062 8.48868C38.8028 8.30871 40.0349 9.40238 39.8688 11.5205C39.7165 13.431 39.3289 15.2584 38.3321 16.9197C37.3907 18.484 36.0756 19.6192 34.3174 20.2145C33.9574 20.3391 33.7359 20.5329 33.5698 20.879C32.3238 23.4125 30.538 25.5168 28.2122 27.1365C27.3677 27.7179 26.9662 28.4794 26.9801 29.5038C27.0078 30.7359 26.9801 31.9819 26.9801 33.2694C28.3229 33.7678 29.1397 34.6953 29.2782 36.2458C29.555 36.2458 29.8319 36.232 30.095 36.2458C31.2994 36.315 32.2408 37.2426 32.2685 38.447C32.31 39.9422 32.2962 41.4235 32.2685 42.9186C32.2685 43.597 31.9777 43.8462 31.2717 43.86C30.6626 43.8738 30.0534 43.86 29.4581 43.86C25.2911 43.86 21.1241 43.86 16.957 43.86C16.7494 43.86 16.5556 43.8738 16.3479 43.8462C15.8218 43.7908 15.5726 43.5277 15.5588 42.9325C15.545 42.0741 15.5588 41.2158 15.5588 40.3575C15.5588 39.776 15.545 39.1946 15.5588 38.6131C15.5865 37.1872 16.5002 36.2735 17.94 36.2181C18.1199 36.2181 18.2861 36.2181 18.5214 36.2181C18.7152 34.8061 19.3936 33.7539 20.861 33.2694C20.861 32.5772 20.861 31.885 20.861 31.1789C20.861 30.6252 20.8472 30.0714 20.861 29.5177C20.9026 28.4932 20.5011 27.7179 19.6566 27.1503C18.203 26.1674 16.9432 24.963 15.9187 23.5371C15.3096 22.6787 14.7835 21.7512 14.2575 20.8375C14.0913 20.5606 13.9391 20.353 13.6206 20.2422C11.0457 19.37 9.49515 17.4596 8.63682 14.9538C8.17997 13.6386 7.97231 12.2681 8 10.856C8.02769 9.48545 8.95523 8.53021 10.3258 8.50252C11.0318 8.48868 11.7379 8.50252 12.5408 8.50252ZM27.6723 36.1905C27.4508 35.2629 27.1462 34.9445 26.3432 34.7784C25.5541 34.6122 25.4295 34.4738 25.4295 33.6708C25.4295 32.1619 25.4157 30.639 25.4295 29.13C25.4295 28.8255 25.4849 28.5209 25.5403 28.2302C25.7895 27.095 26.5786 26.3751 27.4646 25.7106C31.507 22.6926 33.5836 18.6363 33.7359 13.5971C33.7913 11.6313 33.7498 9.66542 33.7498 7.68573C33.7498 6.79972 33.5144 6.57821 32.6146 6.57821C26.8139 6.57821 20.9995 6.57821 15.1989 6.57821C14.3544 6.57821 14.1052 6.8274 14.1052 7.65804C14.1052 9.67926 14.0775 11.7005 14.119 13.7217C14.1744 16.6151 15.005 19.287 16.5833 21.7097C17.6354 23.3433 18.9506 24.7276 20.5565 25.8213C21.8716 26.7212 22.5085 27.9256 22.4669 29.5315C22.4254 30.8882 22.4669 32.2588 22.4531 33.6155C22.4531 34.4738 22.3562 34.5845 21.4979 34.7645C20.7226 34.9306 20.3903 35.3044 20.2242 36.1766C22.6884 36.1905 25.1527 36.1905 27.6723 36.1905ZM30.7318 42.2541C30.7318 41.0081 30.7456 39.8453 30.7318 38.6824C30.7179 38.0732 30.4411 37.8379 29.8458 37.7963C29.7212 37.7825 29.5966 37.7963 29.472 37.7963C25.7895 37.7963 22.107 37.7963 18.4383 37.7963C18.2584 37.7963 18.0784 37.7825 17.9123 37.8102C17.4693 37.8656 17.1924 38.1009 17.1924 38.5439C17.137 39.776 17.1509 40.9943 17.1509 42.2541C21.7055 42.2541 26.1771 42.2541 30.7318 42.2541ZM12.5547 10.0669C11.8071 10.0669 11.1841 10.053 10.5611 10.0669C9.8274 10.0807 9.55052 10.3576 9.57821 11.0913C9.61974 12.2542 9.77203 13.4033 10.1458 14.497C10.6304 15.9506 11.4195 17.1827 12.7069 18.041C12.8454 18.1518 13.0254 18.221 13.1361 18.2764C12.9423 16.9058 12.6793 15.5768 12.5823 14.2201C12.4854 12.8772 12.5547 11.5205 12.5547 10.0669ZM35.328 10.0807C35.3003 12.8634 35.5218 15.6183 34.6635 18.3179C35.148 18.0549 35.591 17.778 35.951 17.418C37.7784 15.6045 38.2214 13.2787 38.2767 10.8422C38.2906 10.413 37.9999 10.1223 37.5707 10.1084C36.8508 10.053 36.1309 10.0807 35.328 10.0807Z" fill="#1DBF73"/>
<path d="M20.3765 17.2103C19.6843 16.4766 19.0751 15.8398 18.466 15.203C18.3276 15.0507 18.1614 14.9261 18.0368 14.7738C17.6354 14.2477 17.8153 13.6524 18.4521 13.4863C18.9228 13.3479 19.4074 13.3063 19.8781 13.2233C20.2242 13.1679 20.5841 13.071 20.9302 13.0848C21.6086 13.1125 21.9131 12.7526 22.1485 12.185C22.4254 11.5066 22.7853 10.8698 23.1037 10.2191C23.2698 9.88688 23.4913 9.61 23.879 9.59616C24.322 9.58231 24.5435 9.88688 24.7235 10.2468C25.0696 10.9529 25.4433 11.6312 25.7479 12.3511C25.9556 12.808 26.2186 13.0571 26.7585 13.0848C27.5061 13.1264 28.2537 13.2787 29.0012 13.3894C29.0982 13.4032 29.1951 13.4309 29.292 13.4586C30.0257 13.6801 30.2195 14.2754 29.7073 14.8292C29.1397 15.4383 28.5444 16.0198 27.9214 16.5735C27.5199 16.9335 27.3815 17.2796 27.5199 17.8195C27.7138 18.567 27.783 19.3562 27.9076 20.1314C27.9768 20.5052 27.9629 20.8375 27.6307 21.0866C27.2708 21.3635 26.9247 21.2251 26.5786 21.0451C25.8448 20.6575 25.0972 20.2975 24.3774 19.8822C24.0313 19.6884 23.7544 19.6884 23.4083 19.8961C22.6884 20.3114 21.9408 20.6713 21.2071 21.059C20.861 21.2389 20.5011 21.3635 20.155 21.0728C19.8227 20.7959 19.8227 20.436 19.8919 20.0345C20.0719 19.0654 20.2242 18.0963 20.3765 17.2103ZM23.9067 12.1711C23.6298 12.7387 23.3806 13.1679 23.1868 13.6386C22.9514 14.22 22.5638 14.5108 21.9408 14.5661C21.4424 14.6077 20.9302 14.7046 20.3903 14.7876C20.8056 15.2306 21.1379 15.6183 21.5117 15.9367C21.9685 16.3243 22.107 16.7812 21.9824 17.3488C21.8716 17.861 21.8024 18.3732 21.7055 18.9962C22.1346 18.7747 22.4946 18.6363 22.7853 18.4286C23.5329 17.9025 24.2528 17.861 25.0003 18.4148C25.2911 18.6224 25.651 18.7609 26.094 18.9824C26.0109 18.3732 25.9971 17.8887 25.8587 17.4457C25.651 16.7535 25.8864 16.2828 26.3986 15.8536C26.7585 15.5491 27.0769 15.203 27.4784 14.8015C26.8001 14.6907 26.2463 14.58 25.7064 14.5246C25.1942 14.4692 24.8896 14.2062 24.6819 13.7493C24.4604 13.2371 24.1974 12.7664 23.9067 12.1711Z" fill="#1DBF73"/>
<path d="M22.3977 40.8282C21.9409 40.8282 21.484 40.842 21.041 40.8282C20.4596 40.8005 20.1273 40.4821 20.1412 40.0252C20.155 39.5822 20.4734 39.2776 20.9995 39.2638C21.9547 39.2499 22.9238 39.2361 23.879 39.2638C24.4051 39.2776 24.7235 39.6099 24.7097 40.0529C24.6958 40.4959 24.3774 40.7866 23.8513 40.8143C23.3668 40.842 22.8823 40.8282 22.3977 40.8282Z" fill="#1DBF73"/>
<path d="M27.7414 40.0392C27.7414 40.4545 27.3953 40.8144 26.9662 40.8144C26.5509 40.8144 26.1909 40.4545 26.1909 40.0392C26.1909 39.6239 26.537 39.2639 26.9662 39.2639C27.3815 39.2778 27.7414 39.6239 27.7414 40.0392Z" fill="#1DBF73"/>
</svg>
