<svg width="48" height="48" viewBox="0 0 48 48" fill="none" xmlns="http://www.w3.org/2000/svg">
<path d="M29.74 34.9499C28.91 36.2399 27.81 36.9999 26.19 36.6899C26.06 36.6699 25.9 36.6599 25.79 36.7199C23.91 37.6999 22.17 37.0999 20.66 35.9999C17.13 33.4399 13.58 30.8999 10.59 27.6799C10.48 27.5599 10.35 27.4599 10.11 27.2399C9.96 28.5499 9.07 28.4899 8.17 28.4699C6.86 28.4399 5.55 28.4699 4.24 28.4599C3.27 28.4599 3 28.1799 3 27.1799C3 22.1899 3 17.1999 3 12.2099C3 11.2899 3.3 10.9099 4.13 11.0099C6.48 11.2999 8.82 11.6699 11.16 12.0099C11.4 12.0499 11.63 12.1599 11.86 12.2399C12.86 12.5999 13.79 13.0099 13.4 14.4599C14.17 14.4599 14.84 14.4599 15.52 14.4599C16.5 14.4599 17.48 14.4199 18.46 14.4699C19.63 14.5299 20.65 14.3299 21.67 13.6399C23.36 12.4999 25.24 12.6499 27.07 13.3899C28.76 14.0699 30.44 14.7699 32.13 15.4599C32.28 15.5199 32.43 15.5699 32.67 15.6499C32.65 14.7799 33.24 14.4999 33.91 14.2699C37.14 13.1599 40.48 12.7399 43.88 12.7499C44.62 12.7499 44.9 13.0499 44.9 13.8199C44.91 18.9199 44.9 24.0199 44.91 29.1099C44.91 29.8099 44.59 30.1799 43.87 30.1699C42.23 30.1699 40.6 30.1599 38.96 30.1699C38.38 30.1799 38.05 29.8999 37.89 29.3599C37.84 29.1799 37.76 29.0199 37.69 28.8299C36.89 29.1999 36.34 29.5799 36.32 30.6199C36.3 31.8099 35.24 32.6999 33.97 33.0199C33.65 33.0999 33.31 33.3299 33.1 33.5899C32.36 34.5499 31.45 34.9399 29.74 34.9499ZM31.78 32.2799C30.48 30.9899 29.16 29.6899 27.85 28.3899C27.5 28.0399 27.15 27.6999 26.83 27.3299C26.48 26.9199 26.45 26.4699 26.86 26.0899C27.26 25.7199 27.71 25.7799 28.1 26.1499C28.26 26.2999 28.41 26.4599 28.56 26.6199C29.98 28.0499 31.39 29.4899 32.83 30.9099C33.38 31.4499 33.92 31.4299 34.37 30.8899C34.74 30.4499 34.71 29.9499 34.39 29.5299C33.86 28.8399 33.32 28.1399 32.67 27.5799C30.11 25.3699 27.51 23.2099 24.92 21.0399C24.79 20.9299 24.53 20.7999 24.43 20.8599C23.68 21.2599 22.79 21.2999 22.15 22.0199C20.96 23.3599 19.42 23.7499 17.69 23.2199C16.48 22.8499 15.77 21.8899 16.07 20.6699C16.32 19.6299 16.83 18.6499 17.3 17.6799C17.54 17.1899 17.96 16.7799 18.32 16.2999C16.53 16.2999 14.83 16.2999 13.21 16.2999C12.41 19.2299 11.63 22.0899 10.88 24.9499C10.83 25.1599 10.93 25.4799 11.08 25.6499C14.26 29.1799 18.07 31.9599 21.89 34.7199C22.53 35.1899 23.3 35.4999 24.26 35.3499C23.11 34.1699 22.03 33.0599 20.96 31.9499C20.4 31.3699 20.34 30.8499 20.74 30.4599C21.16 30.0499 21.63 30.1399 22.21 30.7299C23.46 31.9899 24.68 33.2699 25.96 34.4899C26.87 35.3599 27.63 35.1599 28.16 33.9599C27.97 33.7799 27.77 33.5999 27.58 33.4099C26.47 32.2799 25.37 31.1499 24.27 30.0099C23.88 29.5999 23.79 29.1199 24.24 28.7099C24.68 28.3099 25.14 28.3999 25.54 28.8099C25.69 28.9699 25.84 29.1299 25.99 29.2799C27.14 30.4399 28.28 31.6199 29.46 32.7399C30.27 33.5199 31.14 33.3399 31.78 32.2799ZM35.58 28.0799C35.93 27.8499 36.2 27.6299 36.52 27.4799C37.08 27.2099 37.11 26.8499 36.9 26.2899C35.94 23.7399 35.03 21.1799 34.08 18.6299C33.99 18.3499 33.78 17.9999 33.53 17.8999C31.04 16.8699 28.54 15.8699 26.03 14.8999C24.86 14.4399 23.66 14.4599 22.56 15.1199C20.75 16.2299 19.21 17.6399 18.2 19.5499C18.02 19.8799 17.9 20.2499 17.79 20.6099C17.62 21.1799 17.87 21.4899 18.43 21.6099C19.35 21.7999 20.22 21.6299 20.81 20.8899C21.4 20.1599 22.17 19.8699 22.97 19.4699C24.5 18.6899 25.48 19.0499 26.67 20.1699C29.54 22.8699 32.91 25.0099 35.58 28.0799ZM43.09 14.5199C40.26 14.5899 37.54 14.9299 34.85 15.8399C35.11 16.4699 35.36 17.0099 35.56 17.5699C36.78 20.9499 37.98 24.3299 39.22 27.7099C39.32 27.9899 39.59 28.4099 39.81 28.4299C40.89 28.4999 41.97 28.4599 43.09 28.4599C43.09 23.7699 43.09 19.1699 43.09 14.5199ZM4.83 12.7999C4.83 17.4899 4.83 22.0699 4.83 26.6999C5.87 26.6999 6.85 26.6699 7.83 26.7099C8.33 26.7299 8.55 26.5599 8.68 26.0799C9.38 23.5099 10.15 20.9499 10.82 18.3699C11.19 16.9599 11.42 15.5099 11.73 14.0299C9.45 13.2299 7.17 13.0599 4.83 12.7999Z" fill="#1DBF73"/>
</svg>
