<svg width="48" height="48" viewBox="0 0 48 48" fill="none" xmlns="http://www.w3.org/2000/svg">
<path d="M23.79 23.1201C23.79 22.6801 23.79 22.3801 23.79 22.0801C23.79 17.2701 23.79 12.4701 23.79 7.66009C23.79 7.28009 23.8 6.89009 23.9 6.54009C24.16 5.66009 24.96 5.05009 25.86 5.00009C26.84 4.95009 27.57 5.37009 28.04 6.22009C28.15 6.42009 28.21 6.64009 28.33 6.94009C28.59 6.94009 28.89 6.94009 29.18 6.94009C33.43 6.94009 37.68 6.94009 41.93 6.94009C42.21 6.94009 42.5 6.92009 42.76 6.99009C43.76 7.24009 44.17 8.42009 43.53 9.30009C42.93 10.1201 42.28 10.8901 41.65 11.6801C41.04 12.4501 40.42 13.2201 39.78 14.0301C39.92 14.2201 40.03 14.4101 40.17 14.5801C41.19 15.8701 42.22 17.1501 43.25 18.4301C43.41 18.6301 43.57 18.8201 43.69 19.0501C44.12 19.8801 43.7 20.8501 42.79 21.1001C42.48 21.1801 42.14 21.1901 41.82 21.1901C37.67 21.2001 33.52 21.1901 29.38 21.1901C29.08 21.1901 28.78 21.1901 28.41 21.1901C28.41 23.1101 28.41 24.9901 28.41 27.0001C28.62 27.0001 28.86 27.0001 29.1 27.0001C30.77 27.0001 32.44 26.9801 34.11 27.0101C35.71 27.0401 36.9 28.3701 36.73 29.9001C36.64 30.7001 36.22 31.3101 35.55 31.8001C35.95 32.5301 36.26 33.2501 36.02 34.1001C35.78 34.9401 35.25 35.5001 34.44 35.9001C34.78 36.7101 34.97 37.5401 34.59 38.3801C34.2 39.2201 33.53 39.7101 32.58 39.9401C32.64 40.1201 32.69 40.2801 32.74 40.4301C33.23 42.1301 32.07 43.8101 30.3 43.8301C26.91 43.8701 23.52 43.8501 20.13 43.8301C19.36 43.8301 18.65 43.5501 18 43.1201C17.41 42.7301 16.81 42.3501 16.23 41.9401C15.54 41.4501 14.8 41.2301 13.96 41.2401C11.76 41.2701 9.56002 41.2501 7.36002 41.2501C5.76002 41.2501 5.02002 40.5201 5.02002 38.9501C5.02002 35.9401 5.02002 32.9301 5.02002 29.9201C5.02002 28.3901 5.76002 27.6401 7.29002 27.6301C9.41002 27.6201 11.54 27.6001 13.66 27.6401C14.67 27.6601 15.47 27.3301 16.15 26.6001C16.77 25.9301 17.44 25.3201 18.07 24.6601C19.09 23.6001 20.34 23.0901 21.81 23.1001C22.43 23.1301 23.06 23.1201 23.79 23.1201ZM23.75 24.4301C23.05 24.4301 22.42 24.4401 21.79 24.4301C20.69 24.4001 19.77 24.8001 19.01 25.5801C18.36 26.2501 17.67 26.8901 17.03 27.5701C16.11 28.5501 14.99 29.0001 13.64 28.9801C11.57 28.9601 9.49002 28.9701 7.42002 28.9701C6.43002 28.9701 6.30002 29.0801 6.30002 30.0401C6.30002 33.0001 6.29002 35.9601 6.30002 38.9101C6.30002 39.8301 6.43002 39.9501 7.37002 39.9501C9.52002 39.9501 11.67 39.9601 13.82 39.9501C14.97 39.9401 16.02 40.2101 16.95 40.8901C17.42 41.2301 17.93 41.5201 18.4 41.8601C19.08 42.3601 19.83 42.5601 20.67 42.5501C22.97 42.5301 25.27 42.5401 27.57 42.5401C28.4 42.5401 29.24 42.5401 30.07 42.5401C30.55 42.5401 30.96 42.4001 31.26 42.0001C31.87 41.1901 31.44 40.2201 30.34 39.9801C29.92 39.8901 29.6 39.7601 29.6 39.2801C29.6 38.8901 29.91 38.6901 30.49 38.6801C31.02 38.6701 31.55 38.7001 32.08 38.6701C32.85 38.6301 33.43 38.1001 33.47 37.4301C33.5 36.8701 33.05 36.1401 32.28 36.1001C31.86 36.0701 31.54 35.8801 31.55 35.4101C31.55 35.0101 31.85 34.8001 32.42 34.7801C32.82 34.7601 33.23 34.8001 33.63 34.7501C34.24 34.6801 34.7 34.1701 34.74 33.5801C34.79 32.9701 34.44 32.4601 33.82 32.2601C33.68 32.2101 33.52 32.2001 33.38 32.1701C33.03 32.1101 32.84 31.8801 32.85 31.5401C32.86 31.1501 33.09 30.9401 33.47 30.9201C33.77 30.9001 34.08 30.9201 34.37 30.8601C35 30.7301 35.4 30.2301 35.39 29.6201C35.39 29.0101 34.92 28.4601 34.29 28.3601C34.02 28.3201 33.74 28.3301 33.46 28.3301C30.02 28.3301 26.58 28.3301 23.14 28.3301C22.94 28.3301 22.73 28.3401 22.53 28.3201C22.14 28.2901 21.84 28.1301 21.81 27.6901C21.78 27.3101 22.07 27.0501 22.56 27.0201C22.93 27.0001 23.3 27.0201 23.71 27.0201C23.75 26.1301 23.75 25.3301 23.75 24.4301ZM42.55 8.43009C42.52 8.38009 42.48 8.33009 42.45 8.27009C37.77 8.27009 33.09 8.27009 28.37 8.27009C28.37 12.1501 28.37 15.9701 28.37 19.8301C33.1 19.8301 37.78 19.8301 42.61 19.8301C42.41 19.5301 42.29 19.3301 42.14 19.1401C41.17 17.9101 40.19 16.6901 39.21 15.4701C38.25 14.2801 38.25 13.8601 39.18 12.6901C40.14 11.4901 41.11 10.2801 42.07 9.08009C42.23 8.87009 42.39 8.65009 42.55 8.43009ZM27.01 26.9901C27.01 26.7501 27.01 26.5701 27.01 26.4001C27.01 20.1301 27.01 13.8601 27.01 7.59009C27.01 7.46009 27.02 7.34009 27 7.21009C26.94 6.69009 26.61 6.36009 26.12 6.33009C25.59 6.29009 25.2 6.59009 25.09 7.13009C25.05 7.33009 25.06 7.53009 25.06 7.73009C25.06 13.9201 25.06 20.1201 25.06 26.3101C25.06 26.5301 25.09 26.7501 25.1 26.9801C25.75 26.9901 26.33 26.9901 27.01 26.9901Z" fill="#1DBF73"/>
</svg>
