<svg width="48" height="48" viewBox="0 0 48 48" fill="none" xmlns="http://www.w3.org/2000/svg">
<path d="M6.88182 24.4374C6.93182 33.2274 13.3618 40.5674 22.1018 41.7574C31.6518 43.0574 40.5218 36.2474 41.7218 26.6874C42.0218 24.3474 41.8618 22.0474 41.2418 19.7774C41.1918 19.6074 41.1318 19.4374 41.1018 19.2674C40.9618 18.6074 41.1918 18.1674 41.7518 17.9974C42.2918 17.8374 42.7718 18.0874 42.9518 18.7374C43.2218 19.7574 43.5118 20.7874 43.6418 21.8374C44.9118 31.8374 38.6518 40.9374 28.9018 43.3174C18.4318 45.8774 7.67182 39.1174 5.44182 28.5974C3.09182 17.4774 10.3518 6.97741 21.6218 5.21741C24.4318 4.77741 27.2118 5.01741 29.9418 5.82741C30.8418 6.09741 31.1618 6.87741 30.6318 7.46741C30.2718 7.86741 29.8218 7.81741 29.3718 7.67741C27.6918 7.17741 25.9718 6.94741 24.2118 6.96741C15.5618 7.03741 8.21182 13.5174 7.09182 22.1074C6.99182 22.8774 6.95182 23.6574 6.88182 24.4374Z" fill="#1DBF73"/>
<path d="M12.8118 24.3275C12.8618 30.3575 17.4018 35.3575 23.4018 35.9375C29.3418 36.5075 34.8018 32.3875 35.8818 26.4575C36.0418 25.5675 36.0318 24.6475 36.0518 23.7375C36.0618 22.9775 36.3518 22.5175 36.9518 22.4875C37.5018 22.4575 37.9118 22.8375 37.9718 23.5675C38.1818 26.1875 37.5918 28.6375 36.3318 30.9275C33.5418 35.9675 27.7818 38.7375 22.2518 37.7375C16.4218 36.6775 12.0318 32.2575 11.1018 26.5075C9.85183 18.8175 15.4318 11.6175 23.1918 10.9075C23.8718 10.8475 24.5518 10.8375 25.2318 10.8875C25.9618 10.9375 26.3618 11.4075 26.3118 11.9875C26.2518 12.5575 25.8618 12.8175 25.0818 12.7875C19.2618 12.5475 14.3518 16.3275 13.1218 21.9975C12.9518 22.7675 12.9118 23.5475 12.8118 24.3275Z" fill="#1DBF73"/>
<path d="M38.0318 10.8074C38.9718 10.8074 39.7818 10.8174 40.5918 10.8074C41.1018 10.7974 41.5718 10.8874 41.7918 11.4074C42.0118 11.9174 41.7718 12.3174 41.4018 12.6874C39.5918 14.4874 37.8018 16.3074 35.9718 18.0874C35.7118 18.3374 35.2818 18.4274 34.9118 18.5474C34.7318 18.6074 34.5118 18.5574 34.3118 18.5574C33.4318 18.5774 32.4518 18.3574 31.6918 18.6774C30.9318 18.9974 30.3918 19.8374 29.7618 20.4574C28.3418 21.8674 26.9418 23.2774 25.5218 24.6874C25.3418 24.8674 25.1618 25.0474 24.9618 25.1874C24.5518 25.4574 24.1318 25.3974 23.7918 25.0574C23.4518 24.7174 23.3818 24.3074 23.6518 23.8874C23.7918 23.6774 23.9718 23.4974 24.1518 23.3274C26.0118 21.4674 27.8518 19.5974 29.7318 17.7574C30.1518 17.3474 30.3218 16.9374 30.2918 16.3574C30.2518 15.5474 30.2318 14.7374 30.3018 13.9374C30.3318 13.5674 30.4918 13.1374 30.7418 12.8774C32.5418 11.0274 34.3718 9.22741 36.1918 7.39741C36.5418 7.03741 36.9318 6.84741 37.4118 7.04741C37.8918 7.24741 38.0218 7.67741 38.0218 8.16741C38.0218 9.01741 38.0318 9.87741 38.0318 10.8074ZM32.2118 16.5174C33.8518 16.9074 35.0818 16.5874 36.0718 15.3074C36.7618 14.4274 37.6518 13.7074 38.4518 12.9174C38.4318 12.8674 38.4018 12.8074 38.3818 12.7574C37.9618 12.7574 37.5518 12.7774 37.1318 12.7574C36.4518 12.7274 36.1218 12.3874 36.0918 11.7174C36.0718 11.2974 36.0918 10.8774 36.0918 10.4474C35.9718 10.4674 35.9118 10.4574 35.8818 10.4774C34.7318 11.6174 33.5918 12.7474 32.4518 13.8974C32.3418 14.0174 32.2318 14.1974 32.2318 14.3474C32.1918 15.0874 32.2118 15.8174 32.2118 16.5174Z" fill="#1DBF73"/>
<path d="M24.4618 32.1175C20.2318 32.1075 16.8118 28.7275 16.7218 24.4775C16.6318 20.3775 19.9118 16.8575 24.0218 16.6575C24.2218 16.6475 24.4318 16.6375 24.6218 16.6675C25.1518 16.7475 25.4218 17.1075 25.4218 17.6075C25.4218 18.0775 25.1518 18.4275 24.6618 18.5175C24.3418 18.5775 24.0118 18.5875 23.6818 18.6275C20.7018 19.0475 18.5218 21.6275 18.6518 24.5875C18.7818 27.5975 21.1918 30.0175 24.2018 30.1675C27.1618 30.3175 29.7718 28.1275 30.1918 25.1675C30.2318 24.8675 30.2418 24.5675 30.2918 24.2675C30.3718 23.7375 30.7818 23.3775 31.2618 23.3975C31.7518 23.4175 32.2118 23.7975 32.1518 24.3275C32.0618 25.2475 31.9818 26.1975 31.6718 27.0675C30.6218 30.1175 27.6818 32.1175 24.4618 32.1175Z" fill="#1DBF73"/>
</svg>
