<svg width="48" height="48" viewBox="0 0 48 48" fill="none" xmlns="http://www.w3.org/2000/svg">
<path d="M24.4616 43.858C20.5435 43.858 16.6254 43.862 12.7093 43.8559C10.3822 43.8518 9.01822 42.8109 8.44155 40.5513C7.23299 35.805 6.03874 31.0546 4.86085 26.3021C4.36802 24.3104 5.31892 22.7174 7.14301 22.5006C7.66447 22.4392 8.22478 22.5619 8.74829 22.6846C10.372 23.063 11.9957 23.4454 13.5968 23.9034C14.3023 24.1038 14.7338 23.9361 15.1735 23.3779C17.11 20.9158 19.0773 18.4762 21.0384 16.0325C23.0179 13.5683 25.9033 13.5663 27.8807 16.0263C29.8214 18.4434 31.7661 20.8565 33.6761 23.2981C34.1608 23.9177 34.629 24.1059 35.4184 23.883C37.2159 23.3717 39.0379 22.9362 40.8661 22.5435C42.543 22.1836 44.046 23.3022 44.2014 24.9913C44.2444 25.4514 44.1462 25.9422 44.0317 26.3983C42.8804 31.0525 41.7189 35.7068 40.5471 40.357C39.9193 42.8457 38.5962 43.86 36.0114 43.862C32.1608 43.86 28.3122 43.858 24.4616 43.858ZM40.6575 26.0138C40.2731 26.0813 39.9807 26.114 39.6964 26.1835C38.4061 26.4944 37.1157 26.8011 35.8315 27.1344C34.0217 27.6048 32.5453 27.1038 31.3837 25.6498C30.533 24.5844 29.6803 23.5231 28.8296 22.4577C27.6803 21.0201 26.5352 19.5825 25.3839 18.1469C24.5209 17.0713 24.3921 17.0754 23.5066 18.1796C23.4432 18.2594 23.3798 18.3412 23.3164 18.4209C21.3799 20.8421 19.4474 23.2654 17.5068 25.6825C16.3698 27.0997 14.9158 27.5966 13.1449 27.1487C11.8259 26.8154 10.5049 26.4882 9.18181 26.1692C8.9037 26.1017 8.61332 26.0813 8.24728 26.0281C8.31067 26.4085 8.33521 26.6743 8.3986 26.9299C9.44561 31.1221 10.4967 35.3121 11.5519 39.5002C11.8177 40.5595 11.8423 40.5799 12.9281 40.582C20.5946 40.584 28.2611 40.584 35.9276 40.582C37.0871 40.582 37.0912 40.5779 37.3734 39.4593C38.4285 35.2712 39.4817 31.0812 40.5307 26.889C40.5941 26.6396 40.6064 26.3758 40.6575 26.0138Z" fill="#1DBF73"/>
<path d="M27.7295 8.24735C27.7418 10.0653 26.249 11.5561 24.431 11.5397C22.656 11.5254 21.2 10.0673 21.1898 8.29029C21.1775 6.47234 22.6703 4.98567 24.4883 4.99998C26.2653 5.0143 27.7172 6.47029 27.7295 8.24735Z" fill="#1DBF73"/>
<path d="M4.27196 20.791C2.47445 20.7869 1.01028 19.3391 1.00005 17.5559C0.989828 15.7912 2.46423 14.2902 4.23924 14.2595C6.05719 14.2268 7.54795 15.7278 7.53159 17.5743C7.51728 19.3964 6.10013 20.7951 4.27196 20.791Z" fill="#1DBF73"/>
<path d="M44.5878 20.791C42.7699 20.7706 41.3773 19.3453 41.3875 17.515C41.3977 15.7196 42.8537 14.2574 44.6369 14.2574C46.4446 14.2574 47.9722 15.8218 47.917 17.6152C47.8638 19.4107 46.3956 20.8115 44.5878 20.791Z" fill="#1DBF73"/>
</svg>
