<svg width="48" height="48" viewBox="0 0 48 48" fill="none" xmlns="http://www.w3.org/2000/svg">
<path d="M11.3089 25.0576C11.0314 25.5186 10.8217 25.8176 10.6674 26.1416C9.9951 27.5433 8.92798 28.3968 7.38591 28.6148C6.25711 28.7706 5.13447 28.9139 4.00567 29.0634C3.5924 29.1194 3.23464 29.0447 3.06192 28.6211C2.89538 28.2223 3.11744 27.9482 3.40118 27.7053C4.32026 26.9328 5.227 26.1478 6.15841 25.394C6.8616 24.8271 7.36123 24.1418 7.68815 23.2883C8.53938 21.0954 10.285 19.9242 12.6166 19.8806C13.1286 19.8681 13.6714 19.7996 14.1464 19.6189C16.3485 18.7716 18.5074 18.7405 20.6971 19.675C21.3201 19.9429 22.0603 19.9491 22.745 20.0488C22.893 20.0675 23.0534 19.974 23.4297 19.8743C22.9979 19.6501 22.7512 19.5192 22.5044 19.4009C21.9246 19.1267 21.3201 18.8962 20.7588 18.5847C19.3463 17.8122 18.9947 16.0928 19.9816 14.8095C21.0672 13.414 22.5291 12.6913 24.2562 12.4982C25.2925 12.3798 26.3349 12.305 27.4514 12.1991C27.5069 12.0372 27.5686 11.7817 27.6673 11.545C28.0497 10.6168 28.9318 10 29.9187 10C30.9488 10 31.7014 10.5046 32.1578 11.4204C32.3244 11.7568 32.4169 12.087 32.8055 12.2988C33.1941 12.5169 33.2373 13.0526 32.8919 13.2644C32.4169 13.551 32.2874 14.0058 32.0468 14.4232C31.8803 14.716 31.6397 14.9652 31.3436 15.3452C32.4847 14.9714 33.3606 15.1583 34.0268 16.1364C35.1495 15.7128 36.2536 15.2954 37.3885 14.8655C37.3639 14.6599 37.3084 14.4668 37.3145 14.2737C37.333 13.7192 37.7772 13.3766 38.2706 13.6071C39.2514 14.0556 40.2075 14.5603 41.1574 15.0711C41.3424 15.1708 41.4781 15.4075 41.5953 15.6069C42.6378 17.2765 43.6741 18.9461 44.698 20.6219C45.1421 21.3446 45.1236 21.4567 44.5315 22.0672C44.1058 22.5096 43.6741 22.9519 43.2299 23.3755C42.6748 23.9113 42.4836 23.93 41.8852 23.4253C40.8058 22.522 39.7448 21.6 38.6777 20.6904C38.4803 20.5222 38.2706 20.3727 38.0115 20.1671C37.1295 21.058 36.2598 21.924 35.4147 22.8086C35.2913 22.9394 35.2173 23.1699 35.2173 23.3568C35.1988 24.3536 35.2111 25.3566 35.2111 26.4344C36.2351 26.7832 37.2467 27.1508 38.2645 27.4685C38.8073 27.6367 39.2575 27.9108 39.6585 28.322C41.2129 29.9169 42.7858 31.493 44.3526 33.0754C44.4944 33.2187 44.6548 33.3557 44.7782 33.5177C45.1606 34.0099 45.0434 34.5207 44.4513 34.6952C43.5322 34.9755 42.6008 35.2185 41.657 35.3929C41.4041 35.4427 41.0464 35.2372 40.812 35.0503C39.677 34.1282 38.5544 33.1875 37.4441 32.2281C36.9999 31.8419 36.5188 31.6612 35.8588 31.7671C36.488 33.1751 37.0986 34.5394 37.7093 35.9038C37.9992 36.5454 38.3076 37.1809 38.5667 37.835C38.8381 38.5141 38.579 38.9128 37.8573 38.9626C37.5983 38.9813 37.3269 38.9377 37.0678 38.9751C36.4756 39.0498 36.0562 38.8131 35.7293 38.3334C35.5627 38.0904 35.3777 37.8599 35.1741 37.6481C33.2805 35.6483 31.8124 33.3744 30.8501 30.7766C30.7515 30.5087 30.5972 30.247 30.406 30.0352C29.9311 29.4932 29.3636 29.3001 28.6172 29.5057C27.7475 29.7424 26.8469 29.8483 25.9525 29.9854C24.0342 30.2844 22.3194 29.7736 20.7588 28.6397C20.3455 28.3345 19.9014 28.0666 19.3648 27.7115C18.859 30.0415 17.138 31.3124 15.6823 32.7701C15.1333 33.3246 14.9051 33.8354 15.0654 34.6142C15.2752 35.6483 15.3862 36.7074 15.5404 37.754C15.6761 38.676 15.4602 38.9564 14.5473 38.9626C12.8695 38.9751 13.0052 39.0872 12.5179 37.455C12.1417 36.1903 11.7654 34.9194 11.3891 33.6548C11.3151 33.4056 11.2164 33.1688 11.0931 32.8137C10.6983 33.0692 10.3405 33.2498 10.0321 33.499C8.85396 34.4647 7.70049 35.4614 6.52851 36.4333C5.83766 37.0064 5.67112 36.994 5.04812 36.3835C4.71503 36.0533 4.38194 35.7231 4.06119 35.3805C3.57389 34.8571 3.55539 34.6453 4.00567 34.0909C4.82606 33.0941 5.71429 32.1534 6.4915 31.1192C7.52161 29.7487 8.75527 28.6958 10.3529 28.0728C10.7785 27.9046 11.1732 27.6492 11.5865 27.4374C11.5063 26.696 11.42 25.9858 11.3089 25.0576ZM38.0917 17.2266C37.9622 16.9276 37.8388 16.641 37.6846 16.2735C36.4756 16.7345 35.3098 17.183 34.1502 17.6316C34.1008 17.6503 34.0392 17.6876 34.0145 17.7313C33.484 18.647 32.5649 18.728 31.6644 18.8464C30.443 19.0021 29.3142 19.4258 28.2409 19.9491C28.2409 21.357 28.2409 22.7089 28.2409 24.067C28.4692 24.0483 28.6604 24.0359 28.8886 24.0234C29.049 24.6464 29.2155 25.2382 29.3512 25.8363C29.8817 28.1289 31.3128 29.4309 33.6012 29.8047C34.7238 29.9854 35.8403 30.1847 36.9444 30.4402C37.3762 30.5399 37.8203 30.7579 38.1719 31.032C39.1157 31.7671 40.0533 32.5272 40.923 33.3557C41.5275 33.9289 42.1011 34.0223 42.8352 33.5863C42.6316 33.3682 42.4404 33.1502 42.2368 32.9446C41.1265 31.817 39.9977 30.7081 38.906 29.568C38.505 29.1506 38.0609 28.8827 37.5119 28.7207C36.6175 28.4528 35.7416 28.1351 34.8595 27.8361C33.8479 27.4934 33.8541 27.4872 33.7924 26.4219C33.7184 25.0202 33.1324 23.8801 32.0098 23.0391C31.8247 22.902 31.6397 22.765 31.4176 22.603C31.6212 22.1981 31.8124 21.818 32.053 21.3383C32.6821 21.8118 33.2126 22.2105 33.6752 22.5656C34.8102 21.4131 35.9637 20.2481 37.1171 19.0831C37.845 18.348 37.845 18.3542 38.7147 18.7592C39.2637 17.9431 39.8127 17.1394 40.3987 16.2735C40.0039 16.0617 39.6153 15.8561 39.1095 15.5882C39.202 16.1177 39.2637 16.4791 39.3377 16.884C38.906 17.0024 38.5173 17.1083 38.0917 17.2266ZM13.8688 22.4846C13.5666 23.0516 13.2088 23.5375 13.0361 24.0857C12.5364 25.6432 12.7647 27.101 13.8195 28.3968C14.3499 29.0447 14.3376 29.2129 13.7639 29.811C13.4 30.191 13.0422 30.5835 12.6475 30.9323C12.2959 31.2438 12.2157 31.5491 12.3637 32.0163C12.777 33.2997 13.1348 34.6079 13.5234 35.8975C13.6406 36.2838 13.7763 36.6576 13.9058 37.0438C13.8626 35.9723 13.7331 34.9194 13.548 33.8853C13.4555 33.3371 13.5666 32.9321 13.9737 32.5459C14.8804 31.6737 15.7625 30.7704 16.6384 29.867C18.2175 28.2286 18.5505 26.154 17.5883 24.0982C17.4279 23.7618 17.2737 23.4253 17.0887 23.0391C17.5451 22.8211 17.9275 22.6404 18.3161 22.4535C18.5629 22.9145 18.7664 23.2883 19.0625 23.8365C19.0625 22.6342 19.0625 21.6498 19.0625 20.6344C17.7918 20.2668 16.5767 20.3353 15.3492 20.734C14.498 21.0082 13.6714 21.357 12.7338 21.3383C10.8217 21.2947 9.64967 22.142 8.93415 23.9736C8.58256 24.8707 8.06442 25.6307 7.33039 26.2475C6.96029 26.559 6.59636 26.8892 6.16458 27.2567C7.8547 27.3315 8.74293 26.8019 9.43995 25.4501C9.68052 24.9828 9.92725 24.4533 10.3159 24.1542C11.2843 23.4191 12.2342 22.684 12.925 21.6623C12.9374 21.6436 12.9806 21.6498 13.0793 21.6311C13.326 21.8866 13.5974 22.1856 13.8688 22.4846ZM27.7845 25.5809C25.0149 25.5809 22.2947 25.5809 19.5313 25.5809C19.4758 26.017 19.5005 26.3098 19.9631 26.5091C20.4874 26.7396 21.0055 27.0449 21.4496 27.4062C23.6949 29.2253 26.1067 28.6584 28.5617 28.0417C28.2965 27.1882 28.0497 26.4157 27.7845 25.5809ZM25.8291 14.4107C26.1191 14.6412 26.3658 14.8406 26.6125 15.0462C27.5316 15.8187 28.4383 16.5974 29.3636 17.3512C29.5548 17.507 29.8262 17.6876 30.0359 17.6627C30.8131 17.5755 31.5842 17.4322 32.3552 17.264C32.4971 17.2329 32.6019 17.0086 32.7253 16.8778C32.5403 16.7905 32.3429 16.6099 32.1763 16.6348C31.7199 16.6971 31.2573 16.803 30.8255 16.9588C30.2703 17.1581 29.8879 17.0086 29.5425 16.5476C28.9811 15.8 28.3828 15.0773 27.8092 14.336C27.4391 13.8563 26.9764 13.6133 26.372 13.6943C25.4529 13.8127 24.5276 13.931 23.6086 14.0743C23.3618 14.1117 23.1336 14.2488 22.8437 14.3609C22.9609 14.8344 23.0657 15.2393 23.1644 15.6318C23.8183 15.6318 24.3673 15.6318 24.8792 15.6318C25.2061 15.2144 25.5022 14.8281 25.8291 14.4107ZM12.5118 28.9824C12.4377 28.8952 12.3699 28.8142 12.2959 28.727C11.2966 29.2253 10.2912 29.7237 9.29191 30.2346C9.13771 30.3093 8.98967 30.4215 8.87864 30.5523C7.71899 31.9104 6.56552 33.2685 5.36887 34.6827C5.56009 34.8509 5.71429 34.9942 5.88084 35.1375C6.15841 34.907 6.38047 34.7139 6.6087 34.5394C7.87937 33.5676 8.95266 32.3278 10.4145 31.6052C10.5132 31.5553 10.6551 31.4681 10.6613 31.3871C10.7353 30.5399 11.494 30.2284 11.9319 29.6677C12.117 29.4309 12.3206 29.2129 12.5118 28.9824ZM32.6575 31.0943C33.2311 33.5738 35.0199 35.1749 36.5003 37.0376C36.5312 36.913 36.5682 36.8445 36.5497 36.8071C35.791 35.0939 35.0323 33.3869 34.2489 31.6861C34.1625 31.5055 33.9343 31.3373 33.7431 31.2812C33.3915 31.1753 33.0214 31.1504 32.6575 31.0943ZM21.684 15.177C20.5429 16.18 20.6108 16.9588 21.7149 17.4821C23.1089 18.1424 24.5091 18.7716 25.9155 19.4071C26.0574 19.4694 26.2177 19.4881 26.3905 19.5317C26.3596 18.8028 26.3534 18.7654 25.8353 18.5287C25.1198 18.2047 24.4043 17.8745 23.6764 17.6004C22.6093 17.2017 21.573 16.803 21.684 15.177ZM20.5491 21.1888C20.5491 22.1794 20.5491 23.1325 20.5491 24.1356C20.8822 24.1169 21.1659 24.1044 21.4496 24.0919C21.8136 23.2198 22.159 22.3974 22.5168 21.5377C21.8074 21.4131 21.1906 21.301 20.5491 21.1888ZM41.2252 17.7001C40.4542 18.2608 40.2568 19.0956 39.8867 19.8619C40.2753 20.1921 40.6207 20.4911 40.8798 20.7091C41.3979 20.2481 41.8544 19.8494 42.317 19.4445C41.9346 18.8402 41.5953 18.2982 41.2252 17.7001ZM24.5646 20.3603C24.0342 21.6187 23.5222 22.8335 22.9856 24.0982C23.479 24.0982 23.8491 24.0982 24.3302 24.0982C23.7874 23.5313 24.0403 23.0889 24.3919 22.6466C24.8299 22.0859 25.2432 21.5066 25.6996 20.8836C25.2617 20.6842 24.9471 20.5409 24.5646 20.3603ZM26.5755 24.2041C26.631 24.1605 26.6927 24.1169 26.7482 24.0733C26.7482 23.3942 26.7482 22.7151 26.7482 21.8679C26.3226 22.4348 26.0019 22.8709 25.6256 23.3817C25.9587 23.6745 26.2671 23.9362 26.5755 24.2041ZM29.086 12.0309C29.6967 12.0309 30.2456 12.0309 30.8625 12.0309C30.1285 11.1961 29.6782 11.2086 29.086 12.0309ZM30.8008 13.5822C30.2333 13.5822 29.6905 13.5822 29.1168 13.5822C29.6967 14.4543 30.2703 14.4543 30.8008 13.5822ZM42.0641 21.681C42.7241 22.3164 42.8845 21.6561 43.1559 21.4443C43.489 21.1888 43.3163 20.977 43.1127 20.84C42.755 21.1265 42.4404 21.3757 42.0641 21.681Z" fill="#1DBF73"/>
</svg>
